<?xml version="1.0" encoding="UTF-8"?>
<svg id="Layer_1" data-name="Layer 1" xmlns="http://www.w3.org/2000/svg" xmlns:xlink="http://www.w3.org/1999/xlink" viewBox="0 0 427.77778 427.77778">
  <defs>
    <style>
      .cls-1, .cls-2 {
        fill: #8b3392;
      }

      .cls-3 {
        fill: url(#radial-gradient);
      }

      .cls-2 {
        fill-rule: evenodd;
      }
    </style>
    <radialGradient id="radial-gradient" cx="213.88889" cy="213.88889" fx="213.88889" fy="213.88889" r="213.88889" gradientUnits="userSpaceOnUse">
      <stop offset="0" stop-color="#fff"/>
      <stop offset=".2604" stop-color="#fafafa"/>
      <stop offset=".56554" stop-color="#ebebeb"/>
      <stop offset=".89201" stop-color="#d4d4d4"/>
      <stop offset="1" stop-color="#cbcbcb"/>
    </radialGradient>
  </defs>
  <circle class="cls-3" cx="213.88889" cy="213.88889" r="213.88889"/>
  <g>
    <path class="cls-2" d="M293.99072,107.12398l-52.05695,52.22254,3.58726,29.27083,9.64428-20.09568,29.67783,37.95619,41.55036-128.25218-138.37244,57.67932,37.46638,19.71627,68.50327-48.49729Z"/>
    <g>
      <path class="cls-2" d="M248.73581,198.66863h-54.78192c-41.7987,6.44331-46.12413,67.35119-.49669,75.53295h55.27861v-54.94748c18.4262.62089,22.25491,23.68985,8.65085,32.12686,2.72495,3.22164,13.72826,15.13556,13.72826,15.13556,28.8155-24.9316,12.3692-65.74379-22.3791-67.84788ZM228.70221,253.74029h-30.54706c-18.916,1.11067-25.09716-30.26424-1.84884-34.36199h32.3959v34.36199Z"/>
      <path class="cls-2" d="M363.3632,226.20099h-20.15775l-8.65086,20.21987h25.59388c5.19462-.24836,5.31882,7.31942,0,7.81612h-44.26843v-34.85869h68.01344v-20.59237h-10.01678c-2.97331-42.66795-53.7954-43.90279-67.15113-20.58546,2.60078,2.22823,15.08726,13.27293,15.08726,13.27293,7.67127-12.03118,28.93972-11.41031,32.03028,7.31254h-57.99666v75.53986h65.28849c14.83893-.24836,21.64098-11.16198,23.24834-20.58549.99342-15.13557-8.16108-25.17994-21.02009-27.53929Z"/>
      <path class="cls-2" d="M167.98751,198.66863h-26.4631c-8.40941,10.29273-23.12417,51.96726,5.9328,83.34909,0,0,12.61759-10.78945,15.08729-12.77626-9.02339-8.67845-23.86232-44.15803,5.44301-70.57283Z"/>
      <path class="cls-2" d="M83.90027,266.26816c-9.15447,0-16.57049,7.4367-16.57049,16.61876,0,9.17517,7.41602,16.61879,16.57049,16.61879,9.14756,0,16.57049-7.44361,16.57049-16.61879,0-9.3062-7.42293-16.61876-16.57049-16.61876Z"/>
      <path class="cls-2" d="M64.61175,274.20158h.24142c3.21476-7.19525,10.5135-12.27954,18.92294-12.27954s15.57705,5.08428,18.916,12.27954h17.19135v-75.53295h-54.78193c-41.79181,6.44331-46.12413,67.35119-.48978,75.53295ZM99.84988,219.37829v34.36199h-30.5402c-18.92289,1.11067-25.10404-30.26424-1.85573-34.36199h32.39592Z"/>
    </g>
    <path class="cls-1" d="M83.90027,162.69236h-17.80535v26.29752h7.29188v-8.18867l8.16103,8.18867h11.37584l-8.16108-8.18867c6.67785-1.11067,10.0168-15.00449-.86231-18.10885ZM84.02444,171.50187h-.12417c0,.99339-.74506,1.73844-1.73156,1.73844h-8.65777v-3.72522h8.78194c.9865,0,1.73156.74506,1.73156,1.73842v.24836ZM105.78958,162.3198c-7.29874,0-13.35573,5.95354-13.35573,13.39712,0,7.31945,5.93282,13.39712,13.35573,13.39712,7.29183,0,13.34882-5.9535,13.34882-13.39712-.11728-7.44358-6.05699-13.39712-13.34882-13.39712ZM105.78958,181.54627c-3.21476,0-5.81554-2.60078-5.81554-5.82934,0-3.22166,2.60078-5.82933,5.81554-5.82933s5.80863,2.60767,5.80863,5.82933c0,3.22856-2.59387,5.82934-5.80863,5.82934ZM168.60149,175.59276c0,7.31942,6.55366,13.39712,14.47331,13.39712h10.13403v-7.69195h-11.98979c-1.73156,0-3.33893-.86925-4.33234-2.10409h16.32213v-7.07109h-16.32213c.99342-1.36592,2.60078-2.23517,4.33234-2.23517h11.98979v-7.69196h-10.13403c-7.91965,0-14.47331,6.0777-14.47331,13.39713ZM120.50432,175.71692c0,7.31945,6.55369,13.39712,14.4664,13.39712h10.14097v-7.69197h-11.37581v-.24833c-2.97334,0-5.44304-2.4766-5.44304-5.45682v-.24833c0-2.97334,2.4697-5.45681,5.44304-5.45681h11.37581v-7.69198h-10.14097c-7.91272,0-14.4664,6.0777-14.4664,13.39712ZM195.18875,162.69236v6.9469h9.4028v18.97807h6.9193v-18.97807h9.52699v-6.9469h-25.8491ZM172.31294,162.69236h-10.26514l-7.16769,7.19524v-7.19524h-6.92621v25.92497h6.92621v-7.44359l7.41602,7.44359h10.26517l-12.9832-13.02457,12.73484-12.90041Z"/>
    <path class="cls-1" d="M297.45382,289.83384c0,.86922.49672,1.61428,1.35903,2.22825.49669.3725.99342.49669,1.4832.49669l1.24175-1.85573c-1.11756,0-1.60739-.12419-1.73153-.74506-.12419-.24833.12414-.49669.48978-.62089.37253-.12414.62089-.24833.86922-.24833.12417,0,.24836.12419.37253.12419.48981.24834.9865.4967,1.35903.74503.37253.37253.614.74506.614,1.24178,0,.61395-.614,1.23481-1.73159,1.73153-.61398.24833-1.35901.37253-2.34554.37253h-1.73153v2.60767c.12417,0,.62086.12419,1.4832.49669,1.11067.37255,1.85573.74506,2.35242,1.11761.9865.73812,1.97303,1.48317,2.84223,2.22823l1.48323-1.24175c-.74506-.74506-1.73156-1.4832-2.96642-2.47659-.62086-.37253-1.23484-.74506-1.60739-.86925,1.23486-.24833,2.2214-.62086,2.96642-1.11756.86234-.62089,1.35903-1.49011,1.35903-2.60078,0-1.61428-.73817-2.73186-2.22825-3.47692-.24148-.24834-.61398-.3725-.86234-.49669-.37253-.12417-.74506-.24833-1.11067-.24833-.99339,0-1.85573.24833-2.60078.62089-.86231.3725-1.35903,1.11756-1.35903,1.98678ZM306.60828,285.36353h-1.24172c-.12419-1.73156-.73817-2.84912-1.85573-3.59417-.73817-.37253-1.35906-.62089-1.84884-.62089-.49672,0-.99342.12419-1.60739.24836-1.24175.37253-2.35242.86922-3.22167,1.49008l.74506,1.6143c.49669-.12419.86234-.37255,1.23486-.62089.24836-.24836.62086-.37253.99342-.37253.12414,0,.36562-.12417.86231-.24833.37253-.12419.62086-.12419.86922-.12419h.36564c.86922.37253,1.36592.99339,1.36592,1.98681v.12419h-27.08396v-.24836h-14.4664c-.74506.73814-1.35903,1.35903-1.73156,1.73153-1.60737,1.98681-2.47661,3.72528-2.47661,5.33264v.74506c0,.99339,0,1.73844.24836,2.23514.37253,1.11758.74506,1.73847,1.23486,2.11097.74506.61397,1.49011.86234,2.35242.86234.62086,0,1.23486-.24836,1.85573-.61398l-.74506-1.86261c-.48981.3725-.86231.49669-1.23484.49669-.62089,0-1.1107-.37253-1.4832-1.24175-.37255-.74506-.49672-1.36594-.49672-2.111,0-1.11756.37253-2.35242,1.24178-3.46998.79747-1.03357,1.70268-1.74305,2.71804-2.04112v1.04771h2.34554c.37253,0,.74506.24836,1.11756.74506.37255.3725.61398.86922.61398,1.24175h-.24142c-.74506,0-1.49011.24836-2.22828.74506-.9865.61398-1.4832,1.60737-1.4832,2.84912,0,.49672,0,.86922.12419,1.11758.3725.62089.73814,1.24175,1.35901,1.61428.62089.37253,1.23486.62086,1.97992.62086.73814,0,1.4832-.24833,2.4697-.74506l-.61398-1.98681c-.86922.37255-1.36594.49672-1.60737.49672-.24836,0-.62089-.12417-.86925-.37253-.24833-.24833-.3725-.49669-.3725-.74506,0-.12417.12417-.12417.12417-.24833.37253-.62089.86922-.99342,1.73156-.99342.8692,0,1.60737.24836,2.22823.74506.61398.37253,1.23486.86922,1.73156,1.49011.73814.74506,1.1107,1.36592,1.1107,1.86261v1.35903h2.22823v-11.16195h.37253v.24836h1.60739v10.91359h2.22134v-10.91359h10.5135c-2.22825.8692-3.83565,1.49008-4.82212,1.98678-2.35245.99339-3.71148,1.73844-4.20818,2.111l.62089,2.10406c.73814,0,1.85573.24836,3.09059.74506,1.23484.3725,2.10406.86922,2.84221,1.36592,1.73156,1.24175,2.72498,2.111,2.84914,2.60078h1.84882v-10.91359h1.97989v10.91359h2.22828v-10.91359h.73812v.12417h8.78197v.24833h11.74834v3.22856c-.49669-.49669-.9865-.74506-1.4832-.74506-.9865,0-1.85573.62086-2.60078,1.60739-.73814-1.11067-1.60739-1.60739-2.71806-1.60739s-2.10406.37253-2.84221,1.11758c-.74506.73814-1.1107,1.73156-1.1107,2.84912,0,.49669,0,.99342.24145,1.49011.24836.62089.49669,1.11758.86925,1.36594.86231.74506,1.85573,1.11067,2.84221,1.11067.12419,0,.37255-.1242.86925-.1242l.73815-2.22822c-.49672.12417-.86234.12417-1.1107.12417-1.35901,0-2.10406-.62089-2.10406-1.73847v-.24833l.12419-.62086c0-.37255.12414-.62091.49669-.86925.3725-.24836.61398-.37253.98648-.37253.49669,0,.74506.12417,1.11067.62086.37255.49672.49672.99342.49672,1.6143h2.22825c0-.62089.24836-1.11758.49669-1.49011.36562-.37253.61398-.62089.9865-.62089s.62089.24836.9865.62089c.3725.37253.49669.74506.49669,1.11758v4.33923h2.22825v-10.54109h1.23486v-1.86261h-14.21807v-.24836ZM272.7223,292.93132c-.98653-.99342-1.97992-1.73153-2.84226-2.10409,0-1.61425-.74506-2.73184-2.22823-3.72522h5.07049v5.82931ZM289.91365,294.79395c-.12419-.12419-.24836-.24836-.49669-.37255-1.60739-1.24175-3.21476-2.11095-4.94632-2.73183l.37253-.12417c1.85573-.73817,3.09056-1.35903,3.71145-1.60739.36562-.24833.86234-.37253,1.23484-.49669h.12419v5.33264ZM344.68864,285.12209h-6.05696v.12419h-12.48651v1.85573h9.76844c-2.22825.8692-3.83565,1.49008-4.82213,1.98678-2.35242.99339-3.71145,1.73844-4.20815,2.111l.62086,2.10406c.73814,0,1.85573.24836,3.09059.74506,1.23484.3725,2.10406.86922,2.84221,1.36592,1.73156,1.24175,2.72498,2.111,2.84912,2.60078h1.84884v-10.91359h1.4832v-.1242h1.24175c-.62086,1.11758-.86922,1.98681-.86922,2.73186,0,.62086.24836,1.49011.74506,2.72492.48978,1.24178.73814,2.111.73814,2.73186s-.73814,1.11761-1.97301,1.36594l-.24833,1.85573c1.11067-.12419,1.97298-.24833,2.34554-.37253,1.35901-.48978,2.10406-1.35903,2.10406-2.60078,0-.62086-.12417-1.49011-.49669-2.4835-.61398-1.97989-.9865-3.22164-.9865-3.47,0-.62089.24833-1.36592.9865-2.35931v-.1242h.86922v.1242h1.60737v10.91359h2.22137v-10.91359h1.36592v-1.85573h-4.58068v-.12419ZM336.16198,294.79395c-.12419-.12419-.24836-.24836-.49672-.37255-1.60737-1.24175-3.21473-2.11095-4.94632-2.73183l.37255-.12417c1.85573-.73817,3.09057-1.35903,3.70454-1.60739.37253-.24833.86922-.37253,1.24175-.49669h.12419v5.33264ZM349.75913,292.06209v2.98019c.99342.49672,2.84914,1.86264,5.56718,4.21506l1.85573,1.49011v-2.23517c-1.11758-1.60736-3.58729-3.71834-7.42291-6.4502ZM352.8497,292.18626c.99342,0,1.85573-.24836,2.35245-.86234.49669-.62086.74506-1.36592.74506-2.35931,0-.4967-.12417-1.11756-.37253-1.61428-.49669-1.36594-1.4832-1.9868-2.72498-1.9868-.98648,0-1.73153.37253-2.34551.99342-.62089.62086-.99339,1.36591-.99339,2.35931s.24833,1.86261.86922,2.48353c.62089.61395,1.4832.98648,2.46967.98648ZM352.73244,287.72286c.24145-.12416.36562,0,.61398.1242.49669.24833.74506.74503.49669,1.49006,0,.49672-.24836.86925-.86922,1.11761h-.24145c-.24836,0-.62086-.24836-.86922-.49672-.24836-.37253-.37253-.62089-.37253-.99339,0-.74506.37253-1.11756,1.24175-1.24175ZM371.77263,288.09539c-.56602-.35624-1.1335-.58722-1.67797-.74506h4.76853v-1.86264h-13.4799v-.24142h-1.4832c0-.86925.24836-1.49011.49669-1.86264.86234-1.24178,2.34551-1.86264,4.20124-1.86264,1.60739,0,3.71148.74506,6.18807,2.35933l1.23486-1.36592c-1.60737-.99342-2.72495-1.6143-3.46309-1.98681-1.35906-.62089-2.60078-.86925-3.95984-.86925h-.48978c-.49669.12419-.86922.12419-.99339.12419-1.73156.12417-2.9664.74506-3.95293,1.73844-.99339.86922-1.48317,2.23517-1.48317,3.72528h-1.49011v1.85573h1.49011v10.91359h2.22134v-10.91359h.12417v.24833h6.80205v.12417c-.74506.49669-1.23486.74506-1.60739.99341-.86922.4967-1.35901.74506-1.4832.8692-1.60739.99342-2.72495,1.6143-3.21476,1.98681l.61398,2.10409c.49669,0,1.24175.12419,2.22825.49669.24836,0,.37253.12419.49672.24836.12414.24833.3725.49669.73812.74506.37255.24833.62089.49669.74506.74506.4967.62089.73817.99339.86234,1.11758.24836.24833.62089.74506.86923,1.35903h1.85572v-8.67848c1.85573.24836,2.84226.74506,2.84226,1.73847,0,.73812-.49669,1.11067-1.60739,1.11067h-.74503v2.11095c.4967.12419,1.11756,0,1.85573-.12414.74503-.24836,1.35901-.62089,1.85573-1.11761.49669-.62086.74503-1.24175.74503-1.97987,0-1.36594-.74503-2.35936-2.10406-3.10439ZM366.82631,294.66976c-.74506-.74506-1.35903-1.49011-1.85573-1.98681-.49669-.3725-.86234-.62086-1.11067-.86922.24833-.12417.48978-.36562.73812-.61395.24836-.24836.49672-.37255.62089-.49672.73817-.49669,1.23486-.86922,1.60739-1.11758v5.08428ZM378.07796,292.18626c.99339,0,1.73156-.24836,2.35242-.86234.48981-.62086.73814-1.36592.73814-2.35931,0-.4967-.12417-1.11756-.37253-1.61428-.48978-1.36594-1.4832-1.9868-2.71803-1.9868-.98651,0-1.73156.37253-2.34554.99342-.62089.62086-.99339,1.36591-.99339,2.35931s.24836,1.86261.86922,2.48353c.61395.61395,1.4832.98648,2.46971.98648ZM377.95379,287.72286c.12417-.12416.3725,0,.62086.1242.37253.24833.61398.74503.61398,1.49006,0,.49672-.36564.86925-.9865,1.11761h-.24833c-.24836,0-.61398-.24836-.86234-.49672-.24833-.37253-.37253-.62089-.37253-.99339,0-.74506.37253-1.11756,1.23486-1.24175ZM374.8632,292.06209v2.98019c.9865.49672,2.84223,1.86264,5.56718,4.21506l1.85573,1.49011v-2.23517c-1.11758-1.60736-3.58726-3.71834-7.42291-6.4502ZM138.30965,298.88482l3.95293,1.36592,1.60737-1.36592-3.9529-1.359-1.60739,1.359ZM139.54451,295.04229v-6.20186h-2.10409c0,.62089-.12417,1.49011-1.11067,1.49011h-5.93282v-2.9802h9.14758v-2.22825h-31.78192v2.47661h5.31882v5.45681h4.57379s1.36592-.37255,1.60737-1.11761v2.111c0,.99339-.73814,1.86261-1.60737,1.86261h-6.67788c-.36562,0-.86231-.12417-.86231-1.86261v-5.08428h-2.35242v6.57439c0,.49669.3725,2.47659,2.10406,2.47659h9.15447c1.4832,0,2.4697-1.4832,2.4697-2.72495v-6.32603h-2.10406c-.24836.99339-.12419,1.61425-1.11067,1.86261h-2.71809v-3.35272h7.78855v10.41692h2.71806v-10.41692h1.85573v10.41692h8.90611c.61398,0,2.71806-.48981,2.71806-2.84914ZM137.44043,294.17307c0,.86922-.73814,1.86264-1.35903,1.86264h-5.68446v-3.22856h5.68446c.37253.12417.99339-.49669,1.35903-1.11758v2.4835ZM142.51091,293.42801h5.44299v-2.84914h-5.44299v2.84914ZM150.92032,287.72286h8.90611v1.49011h-8.90611v5.82931c.24833,1.86264,1.11067,3.22164,2.9664,3.22164h8.03691v-10.41687h1.85573v10.41687h2.47659v-12.9004h-15.33562v2.35933ZM159.70226,296.40821h-5.31885c-.86231-.12414-1.35903-1.11756-1.35903-2.11095v-2.84914h6.67788v4.96009ZM178.12848,287.5987h10.75492v1.49008h-3.21476c-.12417.99339-1.85573,1.61428-2.10406,0h-5.5603v6.20186c0,.62086.12419,2.60078,1.73156,2.84914h4.44962v-2.10409h-2.96642c-.62089-.12419-1.11758-.49669-1.11758-1.49011v-3.22167h2.97334v1.85573h2.71804v-1.49008c-.12419-.61398,2.84221-.61398,2.9664,0v6.45023h2.47659v-10.41693h1.60739v10.41693h2.4697v-12.89351h-17.18444v2.35242ZM174.04447,285.86026h-5.68446v3.35272c.24148,1.11756.73817,2.35243,2.71806,2.47659h4.57376v-4.21506c-.12414-.4967-.62086-1.49011-1.60737-1.61425ZM172.31294,289.46131c-.9865,0-1.85573-.37253-1.85573-.86922s.86922-.86923,1.85573-.86923c.99339,0,1.85573.37253,1.85573.86923s-.74506.86922-1.85573.86922ZM168.72565,295.16646l6.92619,2.97334v-2.35245l-6.92619-2.73183v2.11095ZM232.16533,285.86026h-5.69135v3.35272c.24833,1.11756.74506,2.35243,2.72492,2.47659h4.57379v-4.21506c-.12417-.4967-.62086-1.49011-1.60737-1.61425ZM230.43377,289.46131c-.99339,0-1.85573-.37253-1.85573-.86922s.86234-.86923,1.85573-.86923c.9865,0,1.85573.37253,1.85573.86923s-.86922.86922-1.85573.86922ZM226.84648,295.16646l6.92621,2.97334v-2.35245l-6.92621-2.73183v2.11095ZM246.88009,287.5987h4.44958v-2.47661h-15.45289v2.47661h8.89922v1.49008h-8.89922v5.82934c.24145,1.86264,1.11067,3.22167,2.9664,3.22167h8.03691v-6.45023h2.10405c.36565,0,.4898-.12417.4898.37253v1.11756c-.12416.49672-.12416.86925-.4898,1.11761h-.74505v2.11095h1.60739c.49669,0,1.48319-.62086,1.60737-1.49008v-5.82934h-4.57376v-1.49008ZM244.52764,296.40821h-5.31882c-.86236-.12414-1.35906-1.11756-1.35906-2.11095v-2.84914h6.67788v4.96009ZM202.3633,287.72286h8.8992v1.49011h-8.8992v5.82931c.24836,1.86264,1.11067,3.22164,2.9664,3.22164h8.03688v-10.41687h2.84223l-.9865,2.11095v1.49011h1.85573c.9865.11728,1.35903.73814,1.35903,2.47659,0,1.24175-.24833,2.111-1.23484,2.111h-1.73156v2.10409h1.85573c.48981,0,2.9664.24833,3.21476-2.10409.24833-4.83592.49669-6.0777-2.96642-6.45023l.48981-1.73842h3.83565v10.41687h2.47659v-12.9004h-22.01348v2.35933ZM211.14524,296.40821h-5.31885c-.8692-.12414-1.35901-1.11756-1.35901-2.11095v-2.84914h6.67785v4.96009Z"/>
  </g>
</svg>